<?xml version="1.0" encoding="iso-8859-1"?>
<!-- Generator: Adobe Illustrator 19.0.0, SVG Export Plug-In . SVG Version: 6.00 Build 0)  -->
<svg version="1.1" id="Layer_1" xmlns="http://www.w3.org/2000/svg" xmlns:xlink="http://www.w3.org/1999/xlink" x="0px" y="0px"
	 viewBox="0 0 512.002 512.002" style="enable-background:new 0 0 512.002 512.002;" xml:space="preserve">
<g>
	<g>
		<g>
			<path d="M509.984,238.166c-4.096-17.323-13.867-31.829-26.773-39.808c-9.472-5.824-20.203-7.68-30.357-5.333
				c-0.893,0.217-2.297,0.646-3.985,1.199c-18.594-44.893-47.654-77.878-84.582-99.977c-3.132-1.874-6.294-3.643-9.479-5.328
				l6.225-16.75c4.105-11.044-1.521-23.324-12.565-27.429c-11.044-4.105-23.324,1.521-27.429,12.565l-5.786,15.568
				c-7.173-2.11-14.393-3.847-21.627-5.222c-5.805-1.104-11.257-1.921-16.291-2.501V42.668c0-11.782-9.551-21.333-21.333-21.333
				s-21.333,9.551-21.333,21.333v23.202c-11.592,1.744-24.289,4.779-37.604,9.455l-5.713-17.291
				c-3.696-11.187-15.762-17.26-26.949-13.563c-11.187,3.696-17.26,15.762-13.563,26.949l7.226,21.87
				c-3.667,2.116-7.344,4.363-11.023,6.755c-7.646,4.972-14.945,10.398-21.889,16.27l-24.739-24.739
				c-8.331-8.331-21.839-8.331-30.17,0s-8.331,21.839,0,30.17l25.262,25.262c-20.352,25.81-35.724,57.463-45.085,95.342
				c-5.289-0.828-6.856-0.829-7.752-0.829C17.536,241.522,0,265.031,0,298.674c0,33.621,17.536,57.131,42.667,57.131
				c1.617,0,4.128-0.249,7.112-0.645c6.084,22.505,16.034,43.765,29.761,62.697c35.463,48.866,90.324,72.811,176.461,72.811
				c82.41,0,138.218-29.267,176.455-81.955c21.878-30.174,34.185-66.248,36.484-103.867c1.169,0.035,2.195,0.052,3.093,0.052
				c4.267,0,5.739-0.363,7.275-0.725C503.904,298.305,517.365,269.313,509.984,238.166z M397.918,383.66
				c-30.309,41.764-73.36,64.341-141.918,64.341c-73.295,0-115.111-18.252-141.924-55.197
				c-13.379-18.452-22.196-39.927-26.224-62.755c-0.029-0.888-0.093-1.782-0.236-2.682c-2.987-18.773-2.837-37.824,0.427-56.555
				c0.078-0.45,0.117-0.896,0.166-1.344c0.026-0.145,0.048-0.289,0.075-0.434c6.975-37.699,20.016-68.091,38.059-92.175
				c8.18,4.829,18.881,3.754,25.909-3.274c7.246-7.246,8.182-18.405,2.823-26.672c4.869-3.968,9.944-7.668,15.223-11.1
				c0.499-0.325,1.004-0.635,1.505-0.954c3.761,11.079,15.759,17.074,26.889,13.396c11.187-3.696,17.26-15.762,13.563-26.949
				l-1.681-5.086c6.563-2.262,13.174-4.145,19.786-5.665c1.559-0.358,3.067-0.686,4.525-0.987
				c1.419,10.406,10.318,18.431,21.113,18.431c11.366,0,20.629-8.896,21.271-20.101c7.332,0.971,15.12,2.542,23.17,4.824
				l-0.438,1.179c-4.105,11.044,1.521,23.324,12.565,27.429c10.852,4.033,22.892-1.332,27.202-11.998
				c0.869,0.5,1.738,1.006,2.607,1.526c32.852,19.659,57.904,50.203,72.549,94.409c0.165,0.91,0.368,1.819,0.658,2.723
				c3.563,11.093,6.208,21.525,8.128,31.915c1.259,6.805,2.069,14.187,2.539,23.211c0.043,0.887,0.158,1.752,0.306,2.607
				C427.829,321.417,418.014,355.943,397.918,383.66z"/>
			<path d="M283.582,356.408c-8.352,8.351-25.479,8.351-33.83,0c-25.014-25.014-69.156-25.014-94.17,0
				c-8.331,8.331-8.331,21.839,0,30.17s21.839,8.331,30.17,0c8.352-8.351,25.479-8.351,33.83,0c25.014,25.014,69.156,25.014,94.17,0
				c8.352-8.351,25.479-8.351,33.83,0c8.331,8.331,21.839,8.331,30.17,0c8.331-8.331,8.331-21.839,0-30.17
				C352.738,331.395,308.596,331.395,283.582,356.408z"/>
			<path d="M215.539,256.001c-11.776,0-21.333,9.557-21.333,21.333s9.557,21.333,21.333,21.333s21.333-9.557,21.333-21.333
				S227.315,256.001,215.539,256.001z"/>
			<path d="M258.206,277.334c0,11.776,9.557,21.333,21.333,21.333s21.333-9.557,21.333-21.333s-9.557-21.333-21.333-21.333
				S258.206,265.558,258.206,277.334z"/>
			<path d="M169.952,234.668h48.512c11.264,0,18.112-12.373,12.309-22.016c-7.467-12.373-21.056-20.651-36.565-20.651
				s-29.099,8.277-36.565,20.651C151.84,222.294,158.688,234.668,169.952,234.668z"/>
			<path d="M253.442,234.668h94.869c9.877,0,16.597-9.685,13.653-19.115c-8.128-26.005-32.405-44.885-61.099-44.885
				c-28.672,0-52.949,18.88-61.099,44.885C236.823,224.982,243.565,234.668,253.442,234.668z"/>
		</g>
	</g>
</g>
<g>
</g>
<g>
</g>
<g>
</g>
<g>
</g>
<g>
</g>
<g>
</g>
<g>
</g>
<g>
</g>
<g>
</g>
<g>
</g>
<g>
</g>
<g>
</g>
<g>
</g>
<g>
</g>
<g>
</g>
</svg>
