<svg xmlns="http://www.w3.org/2000/svg" width="178" height="220" viewBox="0 0 178 220">
  <path id="제외_3" data-name="제외 3" d="M-5115.475,220a84.686,84.686,0,0,1-32.881-6.571,84.745,84.745,0,0,1-14.349-7.71,84.86,84.86,0,0,1-12.5-10.211,84.433,84.433,0,0,1-10.315-12.376,83.4,83.4,0,0,1-7.789-14.2,82.37,82.37,0,0,1-6.638-32.549,82.749,82.749,0,0,1,4.378-26.642,83,83,0,0,1,12.183-23.094,47.077,47.077,0,0,0,21.151,4.94c22.9,0,42.773-16.69,46.225-38.822a84.1,84.1,0,0,0-67.375,33.881,46.577,46.577,0,0,1-18.506-16.572A44.971,44.971,0,0,1-5209,45.791a44.689,44.689,0,0,1,3.675-17.824A45.6,45.6,0,0,1-5195.3,13.412,46.674,46.674,0,0,1-5180.439,3.6a47.317,47.317,0,0,1,18.2-3.6,47.318,47.318,0,0,1,18.2,3.6,46.67,46.67,0,0,1,14.864,9.814,45.584,45.584,0,0,1,10.022,14.555,44.689,44.689,0,0,1,3.675,17.824,45.463,45.463,0,0,1-.538,6.971h.538a84.682,84.682,0,0,1,32.881,6.571,84.744,84.744,0,0,1,14.349,7.71,84.9,84.9,0,0,1,12.5,10.211,84.435,84.435,0,0,1,10.315,12.376,83.4,83.4,0,0,1,7.789,14.2A82.369,82.369,0,0,1-5031,136.38a82.369,82.369,0,0,1-6.638,32.549,83.4,83.4,0,0,1-7.789,14.2,84.433,84.433,0,0,1-10.315,12.376,84.9,84.9,0,0,1-12.5,10.211,84.745,84.745,0,0,1-14.349,7.71A84.682,84.682,0,0,1-5115.475,220Z" transform="translate(5209)" fill="#b1e7e7" opacity="0.35"/>
</svg>
