<svg id="btn_cal" xmlns="http://www.w3.org/2000/svg" width="60" height="60" viewBox="0 0 60 60">
  <g id="valentines-day-calendar-svgrepo-com_1_" data-name="valentines-day-calendar-svgrepo-com (1)">
    <path id="패스_4013" data-name="패스 4013" d="M0,178.087v33.63a5.909,5.909,0,0,0,5.87,5.935H54.13A5.909,5.909,0,0,0,60,211.717v-33.63Z" transform="translate(0 -157.652)" fill="#dddbd7"/>
    <path id="패스_4014" data-name="패스 4014" d="M256,217.652h24.4a5.941,5.941,0,0,0,5.935-5.935v-33.63H256Z" transform="translate(-226.333 -157.652)" fill="#dddbd7"/>
    <path id="패스_4017" data-name="패스 4017" d="M54.13,44.522H5.87A5.909,5.909,0,0,0,0,50.457v11.21H60V50.457A5.909,5.909,0,0,0,54.13,44.522Z" transform="translate(0 -39.247)" fill="#ee8975"/>
    <path id="패스_4018" data-name="패스 4018" d="M280.4,44.522H256V61.667h30.333V50.457A5.941,5.941,0,0,0,280.4,44.522Z" transform="translate(-226.333 -39.247)" fill="#ee8975"/>
    <path id="패스_4019" data-name="패스 4019" d="M369.282,15.826a1.978,1.978,0,0,1-1.978-1.978V1.978a1.978,1.978,0,1,1,3.957,0v11.87A1.978,1.978,0,0,1,369.282,15.826Z" transform="translate(-324.294)" fill="#4dbfbf"/>
    <path id="패스_4020" data-name="패스 4020" d="M113.282,15.826a1.978,1.978,0,0,1-1.978-1.978V1.978a1.978,1.978,0,0,1,3.957,0v11.87A1.978,1.978,0,0,1,113.282,15.826Z" transform="translate(-98.271)" fill="#57d4d4"/>
  </g>
  <rect id="사각형_1197" data-name="사각형 1197" width="51" height="30" rx="3" transform="translate(4 25.567)" fill="#fff"/>
</svg>
