<svg id="btn_cncel_s" xmlns="http://www.w3.org/2000/svg" width="9.999" height="9.999" viewBox="0 0 9.999 9.999">
  <path id="패스_4213" data-name="패스 4213" d="M.283,8.615,1.321,9.668a.986.986,0,0,0,1.394.01L4.982,7.444,7.216,9.71a.986.986,0,0,0,1.394.01L9.662,8.683a.986.986,0,0,0,.01-1.394L7.438,5.022,9.705,2.788a.986.986,0,0,0,.01-1.394L8.677.341A.986.986,0,0,0,7.283.33L5.016,2.565,2.782.3A.986.986,0,0,0,1.388.289L.336,1.326A.986.986,0,0,0,.326,2.72L2.56,4.987.293,7.222A.985.985,0,0,0,.283,8.615Z" transform="translate(0.001 -0.005)" fill="#3c3c3c"/>
</svg>
