<svg xmlns="http://www.w3.org/2000/svg" width="58" height="76" viewBox="0 0 58 76">
  <g id="btn_dcu" transform="translate(-25 -27.798)">
    <path id="패스_4224" data-name="패스 4224" d="M132.529,93.791a4.11,4.11,0,0,0-4.115,4.1v65.653a4.11,4.11,0,0,0,4.115,4.1h47.333a4.109,4.109,0,0,0,4.115-4.1V114.063L164.138,93.791Z" transform="translate(-100.977 -63.853)" fill="#b1b0af"/>
    <path id="패스_4215" data-name="패스 4215" d="M132.529,93.791a4.11,4.11,0,0,0-4.115,4.1v65.653a4.11,4.11,0,0,0,4.115,4.1h47.336a4.109,4.109,0,0,0,4.115-4.1l.2-46.658L160.94,93.8Z" transform="translate(-103.414 -65.993)" fill="#f3d096"/>
    <path id="패스_4216" data-name="패스 4216" d="M290.888,116.895H272.08a4.956,4.956,0,0,1-4.922-4.989V93.791Z" transform="translate(-210.027 -65.993)" fill="#f1ae40"/>
    <text id="DAY" transform="translate(31.281 73.573)" fill="#f9f8f7" font-size="13" font-family="Pretendard-Medium, Pretendard" font-weight="500" letter-spacing="-0.015em"><tspan x="0" y="0">DAY</tspan></text>
    <text id="_01" data-name="01" transform="translate(31.281 90.573)" fill="#f9f8f7" font-size="15" font-family="Pretendard-ExtraBold, Pretendard" font-weight="800" letter-spacing="-0.015em"><tspan x="0" y="0">01</tspan></text>
  </g>
</svg>
