<svg xmlns="http://www.w3.org/2000/svg" width="21.296" height="24.001" viewBox="0 0 21.296 24.001">
  <g id="clicker-svgrepo-com" transform="translate(-28.849)">
    <path id="패스_4225" data-name="패스 4225" d="M34.855,0a6.006,6.006,0,0,0-1.093,11.911l0-1.113,0-1.128a3.82,3.82,0,1,1,4.76-2.594l.947.613.936.606A6.008,6.008,0,0,0,34.855,0Z" transform="translate(0)" fill="#f3d096"/>
    <path id="패스_4226" data-name="패스 4226" d="M149.189,114.2,135,105.015a1.092,1.092,0,0,0-1.114-.043h0a1.092,1.092,0,0,0-.571.958l-.027,16.9a1.092,1.092,0,0,0,1.944.685l5.2-6.486h0l8.272-.828a1.092,1.092,0,0,0,.485-2Z" transform="translate(-99.542 -99.925)" fill="#5289c9"/>
    <path id="패스_4227" data-name="패스 4227" d="M133.316,108.621l-.027,16.9a1.092,1.092,0,0,0,1.944.685l5.2-6.486-6.547-12.06A1.091,1.091,0,0,0,133.316,108.621Z" transform="translate(-99.544 -102.616)" fill="#5289c9"/>
  </g>
</svg>
