<?xml version="1.0" encoding="iso-8859-1"?>
<!-- Generator: Adobe Illustrator 19.0.0, SVG Export Plug-In . SVG Version: 6.00 Build 0)  -->
<svg version="1.1" id="Layer_1" xmlns="http://www.w3.org/2000/svg" xmlns:xlink="http://www.w3.org/1999/xlink" x="0px" y="0px"
	 viewBox="0 0 512 512" style="enable-background:new 0 0 512 512;" xml:space="preserve">
<path style="fill:#FFD155;" d="M256,512C114.842,512,0,397.159,0,256S114.842,0,256,0s256,114.842,256,256S397.159,512,256,512z"/>
<path style="fill:#FFC72D;" d="M256,0v512c141.158,0,256-114.842,256-256S397.159,0,256,0z"/>
<g>
	<path style="fill:#2C3E50;" d="M256,436.33c-32.147,0-58.301-28.043-58.301-62.514c0-11.248,9.119-20.368,20.368-20.368
		s20.368,9.119,20.368,20.368c0,12.009,7.88,21.778,17.566,21.778c9.685,0,17.565-9.77,17.565-21.778
		c0-11.248,9.119-20.368,20.368-20.368c11.248,0,20.368,9.119,20.368,20.368C314.301,408.287,288.147,436.33,256,436.33z"/>
	<path style="fill:#2C3E50;" d="M408.978,150.184c-14.392,0-294.371,0-305.955,0c-23.55,0-42.709,19.159-42.709,42.709v84.053
		c0,23.55,19.159,42.709,42.709,42.709h100.859c23.55,0,42.709-19.159,42.709-42.709v-21.659h18.82v21.659
		c0,23.55,19.159,42.709,42.709,42.709h100.859c23.55,0,42.709-19.159,42.709-42.709v-84.053
		C451.686,169.343,432.528,150.184,408.978,150.184z M246.59,214.551v-21.659c0-0.663-0.02-1.318-0.05-1.974h18.92
		c-0.03,0.654-0.05,1.312-0.05,1.974v21.659H246.59z"/>
</g>
<path style="fill:#22313F;" d="M408.978,150.184c-21.815,0-138.832,0-152.978,0v40.735h9.46c-0.03,0.654-0.05,1.312-0.05,1.974
	v21.659H256v40.735h9.41v21.659c0,23.55,19.159,42.709,42.709,42.709h100.859c23.55,0,42.709-19.159,42.709-42.709v-84.053
	C451.686,169.343,432.528,150.184,408.978,150.184z"/>
<path style="fill:#238CC5;" d="M277.473,306.632c-7.453-8.425-6.664-21.298,1.761-28.75l131.64-116.44
	c8.425-7.455,21.298-6.664,28.75,1.761c7.453,8.425,6.664,21.296-1.761,28.75l-131.64,116.44
	C297.801,315.844,284.927,315.061,277.473,306.632z"/>
<path style="fill:#51B3DA;" d="M72.377,306.632c-7.453-8.425-6.664-21.298,1.761-28.75l131.64-116.44
	c8.424-7.453,21.298-6.664,28.75,1.761c7.453,8.425,6.664,21.296-1.761,28.75l-131.64,116.44
	C92.706,315.844,79.833,315.062,72.377,306.632z"/>
<path style="fill:#22313F;" d="M293.934,353.449c-11.248,0-20.368,9.119-20.368,20.368c0,12.009-7.88,21.778-17.565,21.778v40.735
	c32.147,0,58.3-28.043,58.3-62.514C314.301,362.569,305.182,353.449,293.934,353.449z"/>
<g>
</g>
<g>
</g>
<g>
</g>
<g>
</g>
<g>
</g>
<g>
</g>
<g>
</g>
<g>
</g>
<g>
</g>
<g>
</g>
<g>
</g>
<g>
</g>
<g>
</g>
<g>
</g>
<g>
</g>
</svg>
