<?xml version="1.0" encoding="iso-8859-1"?>
<!-- Generator: Adobe Illustrator 19.0.0, SVG Export Plug-In . SVG Version: 6.00 Build 0)  -->
<svg version="1.1" id="Layer_1" xmlns="http://www.w3.org/2000/svg" xmlns:xlink="http://www.w3.org/1999/xlink" x="0px" y="0px"
	 viewBox="0 0 512.002 512.002" style="enable-background:new 0 0 512.002 512.002;" xml:space="preserve">
<g>
	<g>
		<g>
			<path d="M346.63,289.432c0.149,9.131,7.723,16.469,16.853,16.32c9.131-0.149,16.469-7.744,16.32-16.853
				c-0.149-9.131-17.131-32.896-17.131-32.896C362.545,255.875,346.481,280.323,346.63,289.432z"/>
			<path d="M133.297,310.766c0.149,9.131,7.723,16.469,16.853,16.32c9.131-0.149,16.469-7.744,16.32-16.853
				c-0.149-9.131-17.131-32.896-17.131-32.896C149.212,277.208,133.148,301.656,133.297,310.766z"/>
			<path d="M198.065,390.435c-8.229,8.432-8.064,21.939,0.369,30.168c8.432,8.229,21.939,8.064,30.168-0.369
				c37.412-38.337,73.021-46.866,97.321-21.481c8.147,8.511,21.652,8.806,30.163,0.658c8.511-8.147,8.806-21.652,0.658-30.163
				C311.804,322.304,250.138,337.074,198.065,390.435z"/>
			<path d="M251.42,255.504c2.353,0.517,4.614,4.132,4.754,12.46c0.202,12.096-5.397,26.336-15.79,37.504
				c-8.027,8.625-7.542,22.124,1.083,30.15c8.625,8.027,22.124,7.542,30.15-1.083c38.6-41.476,37.453-110.044-11.037-120.703
				c-11.507-2.529-22.886,4.749-25.416,16.256C232.635,241.595,239.913,252.974,251.42,255.504z"/>
			<path d="M232.411,222.882c5.273-10.536,1.006-23.352-9.53-28.625s-23.352-1.006-28.625,9.53
				c-6.743,13.474-21.921,18.536-35.375,11.803c-10.536-5.273-23.352-1.006-28.625,9.53s-1.006,23.352,9.53,28.625
				C174.321,271.028,215.127,257.42,232.411,222.882z"/>
			<path d="M353.119,194.257c-13.454,6.733-28.632,1.671-35.375-11.803c-5.273-10.536-18.089-14.803-28.625-9.53
				c-10.536,5.273-14.803,18.089-9.53,28.625c17.284,34.538,58.09,48.146,92.625,30.864c10.536-5.273,14.803-18.089,9.53-28.625
				C376.472,193.251,363.656,188.984,353.119,194.257z"/>
			<path d="M509.984,238.166c-4.096-17.323-13.867-31.829-26.773-39.808c-9.472-5.824-20.203-7.68-30.357-5.333
				c-0.893,0.217-2.297,0.646-3.985,1.199c-18.594-44.893-47.654-77.878-84.582-99.977c-3.132-1.874-6.294-3.643-9.479-5.328
				l6.225-16.75c4.105-11.044-1.521-23.324-12.565-27.429c-11.044-4.105-23.324,1.521-27.429,12.565l-5.786,15.568
				c-7.173-2.11-14.393-3.847-21.627-5.222c-5.805-1.104-11.257-1.921-16.291-2.501V42.668c0-11.782-9.551-21.333-21.333-21.333
				s-21.333,9.551-21.333,21.333v23.202c-11.592,1.744-24.289,4.779-37.604,9.455l-5.713-17.291
				c-3.696-11.187-15.762-17.26-26.949-13.563c-11.187,3.696-17.26,15.762-13.563,26.949l7.226,21.87
				c-3.667,2.116-7.344,4.363-11.023,6.755c-7.646,4.972-14.945,10.398-21.889,16.27l-24.739-24.739
				c-8.331-8.331-21.839-8.331-30.17,0s-8.331,21.839,0,30.17l25.262,25.262c-20.352,25.81-35.724,57.463-45.085,95.342
				c-5.289-0.828-6.856-0.829-7.752-0.829C17.536,241.522,0,265.031,0,298.674c0,33.621,17.536,57.131,42.667,57.131
				c1.617,0,4.128-0.249,7.112-0.645c6.084,22.505,16.034,43.765,29.761,62.697c35.463,48.866,90.324,72.811,176.461,72.811
				c82.41,0,138.218-29.267,176.455-81.955c21.878-30.174,34.185-66.248,36.484-103.867c1.169,0.035,2.195,0.052,3.093,0.052
				c4.267,0,5.739-0.363,7.275-0.725C503.904,298.305,517.365,269.313,509.984,238.166z M397.918,383.66
				c-30.309,41.764-73.36,64.341-141.918,64.341c-73.295,0-115.111-18.252-141.924-55.197
				c-13.379-18.452-22.196-39.927-26.224-62.755c-0.029-0.888-0.093-1.782-0.236-2.682c-2.987-18.773-2.837-37.824,0.427-56.555
				c0.078-0.45,0.117-0.896,0.166-1.344c0.026-0.145,0.048-0.289,0.075-0.434c6.975-37.699,20.016-68.091,38.059-92.175
				c8.18,4.829,18.881,3.754,25.909-3.274c7.246-7.246,8.182-18.405,2.823-26.672c4.869-3.968,9.944-7.668,15.223-11.1
				c0.499-0.325,1.004-0.635,1.505-0.954c3.761,11.079,15.759,17.074,26.889,13.396c11.187-3.696,17.26-15.762,13.563-26.949
				l-1.681-5.086c6.563-2.262,13.174-4.145,19.786-5.665c1.559-0.358,3.067-0.686,4.525-0.987
				c1.419,10.406,10.318,18.431,21.113,18.431c11.366,0,20.629-8.896,21.271-20.101c7.332,0.971,15.12,2.542,23.17,4.824
				l-0.438,1.179c-4.105,11.044,1.521,23.324,12.565,27.429c10.852,4.033,22.892-1.332,27.202-11.998
				c0.869,0.5,1.738,1.006,2.607,1.526c32.852,19.659,57.904,50.203,72.549,94.409c0.165,0.91,0.368,1.819,0.658,2.723
				c3.563,11.093,6.208,21.525,8.128,31.915c1.259,6.805,2.069,14.187,2.539,23.211c0.043,0.887,0.158,1.752,0.306,2.607
				C427.829,321.417,418.014,355.943,397.918,383.66z"/>
		</g>
	</g>
</g>
<g>
</g>
<g>
</g>
<g>
</g>
<g>
</g>
<g>
</g>
<g>
</g>
<g>
</g>
<g>
</g>
<g>
</g>
<g>
</g>
<g>
</g>
<g>
</g>
<g>
</g>
<g>
</g>
<g>
</g>
</svg>
