<svg xmlns="http://www.w3.org/2000/svg" width="141.5" height="94.333" viewBox="0 0 141.5 94.333">
  <g id="그룹_2396" data-name="그룹 2396" opacity="0.7">
    <path id="패스_3696" data-name="패스 3696" d="M416.884,163.142a2.942,2.942,0,1,1-2.942-2.942A2.994,2.994,0,0,1,416.884,163.142Z" transform="translate(-411 -160.2)" fill="#c6b9b6"/>
    <path id="패스_3697" data-name="패스 3697" d="M443.784,163.142a2.942,2.942,0,1,1-2.942-2.942A3.076,3.076,0,0,1,443.784,163.142Z" transform="translate(-369.966 -160.2)" fill="#c6b9b6"/>
    <path id="패스_3698" data-name="패스 3698" d="M470.584,163.142a2.942,2.942,0,1,1-2.942-2.942A2.994,2.994,0,0,1,470.584,163.142Z" transform="translate(-329.084 -160.2)" fill="#c6b9b6"/>
    <path id="패스_3699" data-name="패스 3699" d="M416.884,182.942A2.942,2.942,0,1,1,413.942,180,2.921,2.921,0,0,1,416.884,182.942Z" transform="translate(-411 -135.775)" fill="#c6b9b6"/>
    <path id="패스_3700" data-name="패스 3700" d="M443.784,182.942A2.942,2.942,0,1,1,440.842,180,3,3,0,0,1,443.784,182.942Z" transform="translate(-369.966 -135.775)" fill="#c6b9b6"/>
    <path id="패스_3701" data-name="패스 3701" d="M470.584,182.942A2.942,2.942,0,1,1,467.642,180,2.921,2.921,0,0,1,470.584,182.942Z" transform="translate(-329.084 -135.775)" fill="#c6b9b6"/>
    <path id="패스_3702" data-name="패스 3702" d="M416.884,202.742a2.942,2.942,0,1,1-5.884,0,2.854,2.854,0,0,1,2.942-2.942A2.921,2.921,0,0,1,416.884,202.742Z" transform="translate(-411 -111.351)" fill="#c6b9b6"/>
    <path id="패스_3703" data-name="패스 3703" d="M443.784,202.742a2.942,2.942,0,0,1-5.884,0,2.854,2.854,0,0,1,2.942-2.942A3,3,0,0,1,443.784,202.742Z" transform="translate(-369.966 -111.351)" fill="#c6b9b6"/>
    <path id="패스_3704" data-name="패스 3704" d="M470.584,202.742a2.942,2.942,0,1,1-5.884,0,2.854,2.854,0,0,1,2.942-2.942A2.921,2.921,0,0,1,470.584,202.742Z" transform="translate(-329.084 -111.351)" fill="#c6b9b6"/>
  </g>
</svg>
