<svg id="ic_flg" xmlns="http://www.w3.org/2000/svg" width="38" height="64" viewBox="0 0 38 64">
  <path id="패스_3976" data-name="패스 3976" d="M248.282,136.381A1.717,1.717,0,0,0,250,138.1h17.955a1.717,1.717,0,0,0,1.717-1.717V116.3a1.717,1.717,0,0,0-1.717-1.717H250a1.717,1.717,0,0,0-1.717,1.717Z" transform="translate(-231.672 -99.984)" fill="#ed412f"/>
  <path id="패스_3977" data-name="패스 3977" d="M250,114.583a1.717,1.717,0,0,0-1.717,1.717v18.113h7.7A1.717,1.717,0,0,0,257.7,132.7V114.583Z" transform="translate(-231.409 -99.981)" fill="#231f20" opacity="0.1"/>
  <path id="패스_3978" data-name="패스 3978" d="M136.67,89.624a1.717,1.717,0,0,0,1.717,1.717h17.955a1.717,1.717,0,0,0,1.717-1.717V69.543a1.717,1.717,0,0,0-1.717-1.717H138.387a1.717,1.717,0,0,0-1.717,1.717Z" transform="translate(-133.683 -59.158)" fill="#ff4d30"/>
  <path id="패스_3979" data-name="패스 3979" d="M140.032,89.624V69.543a1.717,1.717,0,0,1,1.717-1.717h-3.363a1.717,1.717,0,0,0-1.717,1.717V89.624a1.717,1.717,0,0,0,1.717,1.717h3.363A1.717,1.717,0,0,1,140.032,89.624Z" transform="translate(-133.682 -59.158)" fill="#231f20" opacity="0.1"/>
  <path id="패스_3980" data-name="패스 3980" d="M129.344,83.1a1.072,1.072,0,0,1-1.073-1.071V22.969a1.073,1.073,0,0,1,2.147,0V82.028A1.072,1.072,0,0,1,129.344,83.1Z" transform="translate(-126.357 -19.099)" fill="#92b5c4"/>
  <circle id="타원_471" data-name="타원 471" cx="2.988" cy="2.988" r="2.988" transform="translate(0)" fill="#ffd960"/>
  <g id="그룹_2371" data-name="그룹 2371">
    <path id="패스_3983" data-name="패스 3983" d="M115.618,2.988A2.988,2.988,0,0,1,117.443.235a2.988,2.988,0,1,0,0,5.505A2.988,2.988,0,0,1,115.618,2.988Z" transform="translate(-113.293)" fill="#231f20" opacity="0.1"/>
  </g>
</svg>
