<svg id="ic_lock" xmlns="http://www.w3.org/2000/svg" width="30" height="42" viewBox="0 0 30 42">
  <path id="패스_4021" data-name="패스 4021" d="M133.613,23.207a2.826,2.826,0,0,1-2.86-2.791V11.744a6.314,6.314,0,0,0-12.625,0v8.673a2.861,2.861,0,0,1-5.72,0V11.744a12.036,12.036,0,0,1,24.064,0v8.673A2.826,2.826,0,0,1,133.613,23.207Z" transform="translate(-109.44)" fill="#c7cfe2"/>
  <g id="그룹_2379" data-name="그룹 2379" transform="translate(2.968 14.253)" opacity="0.1">
    <path id="패스_4022" data-name="패스 4022" d="M115.2,182.623a2.791,2.791,0,0,0,2.791-2.791v-6.217h-5.583v6.217A2.791,2.791,0,0,0,115.2,182.623Z" transform="translate(-112.408 -173.614)"/>
    <path id="패스_4023" data-name="패스 4023" d="M331.333,173.614v6.217a2.791,2.791,0,0,0,5.583,0v-6.217Z" transform="translate(-312.851 -173.614)"/>
  </g>
  <path id="패스_4024" data-name="패스 4024" d="M103.466,207.745H78.774a2.629,2.629,0,0,0-2.654,2.6v19.678a2.629,2.629,0,0,0,2.654,2.6h24.692a2.629,2.629,0,0,0,2.654-2.6V210.348A2.629,2.629,0,0,0,103.466,207.745Z" transform="translate(-76.12 -190.628)" fill="#ffd782"/>
  <path id="패스_4025" data-name="패스 4025" d="M223.2,301.113a3.207,3.207,0,1,0-5.186,2.522v6.1h3.959v-6.1A3.2,3.2,0,0,0,223.2,301.113Z" transform="translate(-204.994 -273.416)" fill="#a67744"/>
</svg>
