<?xml version="1.0" encoding="iso-8859-1"?>
<!-- Generator: Adobe Illustrator 19.0.0, SVG Export Plug-In . SVG Version: 6.00 Build 0)  -->
<svg version="1.1" id="Layer_1" xmlns="http://www.w3.org/2000/svg" xmlns:xlink="http://www.w3.org/1999/xlink" x="0px" y="0px"
	 viewBox="0 0 512.002 512.002" style="enable-background:new 0 0 512.002 512.002;" xml:space="preserve">
<g>
	<g>
		<g>
			<path d="M509.984,238.166c-4.096-17.323-13.867-31.829-26.773-39.808c-9.472-5.824-20.203-7.68-30.357-5.333
				c-0.893,0.217-2.297,0.646-3.985,1.199c-18.594-44.893-47.654-77.878-84.582-99.977c-3.132-1.874-6.294-3.643-9.479-5.328
				l6.225-16.75c4.105-11.044-1.521-23.324-12.565-27.429c-11.044-4.105-23.324,1.521-27.429,12.565l-5.786,15.568
				c-7.173-2.11-14.393-3.847-21.627-5.222c-5.805-1.104-11.257-1.921-16.291-2.501V42.668c0-11.782-9.551-21.333-21.333-21.333
				s-21.333,9.551-21.333,21.333v23.202c-11.592,1.744-24.289,4.779-37.604,9.455l-5.713-17.291
				c-3.696-11.187-15.762-17.26-26.949-13.563c-11.187,3.696-17.26,15.762-13.563,26.949l7.226,21.87
				c-3.667,2.116-7.344,4.363-11.023,6.755c-7.646,4.972-14.945,10.398-21.889,16.27l-24.739-24.739
				c-8.331-8.331-21.839-8.331-30.17,0s-8.331,21.839,0,30.17l25.262,25.262c-20.352,25.81-35.724,57.463-45.085,95.342
				c-5.289-0.828-6.856-0.829-7.752-0.829C17.536,241.522,0,265.031,0,298.674c0,33.621,17.536,57.131,42.667,57.131
				c1.617,0,4.128-0.249,7.112-0.645c6.084,22.505,16.034,43.765,29.761,62.697c35.463,48.866,90.324,72.811,176.461,72.811
				c82.41,0,138.218-29.267,176.455-81.955c21.878-30.174,34.185-66.248,36.484-103.867c1.169,0.035,2.195,0.052,3.093,0.052
				c4.267,0,5.739-0.363,7.275-0.725C503.904,298.305,517.365,269.313,509.984,238.166z M397.918,383.66
				c-30.309,41.764-73.36,64.341-141.918,64.341c-73.295,0-115.111-18.252-141.924-55.197
				c-13.379-18.452-22.196-39.927-26.224-62.755c-0.029-0.888-0.093-1.782-0.236-2.682c-2.987-18.773-2.837-37.824,0.427-56.555
				c0.078-0.45,0.117-0.896,0.166-1.344c0.026-0.145,0.048-0.289,0.075-0.434c6.975-37.699,20.016-68.091,38.059-92.175
				c8.18,4.829,18.881,3.754,25.909-3.274c7.246-7.246,8.182-18.405,2.823-26.672c4.869-3.968,9.944-7.668,15.223-11.1
				c0.499-0.325,1.004-0.635,1.505-0.954c3.761,11.079,15.759,17.074,26.889,13.396c11.187-3.696,17.26-15.762,13.563-26.949
				l-1.681-5.086c6.563-2.262,13.174-4.145,19.786-5.665c1.559-0.358,3.067-0.686,4.525-0.987
				c1.419,10.406,10.318,18.431,21.113,18.431c11.366,0,20.629-8.896,21.271-20.101c7.332,0.971,15.12,2.542,23.17,4.824
				l-0.438,1.179c-4.105,11.044,1.521,23.324,12.565,27.429c10.852,4.033,22.892-1.332,27.202-11.998
				c0.869,0.5,1.738,1.006,2.607,1.526c32.852,19.659,57.904,50.203,72.549,94.409c0.165,0.91,0.368,1.819,0.658,2.723
				c3.563,11.093,6.208,21.525,8.128,31.915c1.259,6.805,2.069,14.187,2.539,23.211c0.043,0.887,0.158,1.752,0.306,2.607
				C427.829,321.417,418.014,355.943,397.918,383.66z"/>
			<path d="M358.819,215.771l10.594-3.531c11.177-3.726,17.218-15.807,13.492-26.985c-3.726-11.177-15.807-17.218-26.985-13.492
				l-64,21.333c-11.177,3.726-17.218,15.807-13.492,26.985c2.461,7.383,8.568,12.522,15.651,14.088
				c-0.202,0.221-0.396,0.451-0.596,0.675c-8.095-4.559-17.367-7.173-26.817-7.173c-9.45,0-18.722,2.615-26.817,7.173
				c-0.199-0.224-0.393-0.453-0.596-0.675c7.083-1.567,13.191-6.706,15.652-14.088c3.726-11.177-2.315-23.259-13.492-26.985
				l-64-21.333c-11.177-3.726-23.259,2.315-26.985,13.492c-3.726,11.177,2.315,23.259,13.492,26.985l10.594,3.531
				C147.667,223.378,128,248.044,128,277.334c0,35.355,28.645,64,64,64s64-28.645,64-64c0-2.412,5.405-6.997,10.667-6.997
				c5.261,0,10.667,4.585,10.667,6.997c0,35.355,28.645,64,64,64c35.355,0,64-28.645,64-64
				C405.333,248.044,385.666,223.378,358.819,215.771z M192,298.668c-11.791,0-21.333-9.542-21.333-21.333
				s9.542-21.333,21.333-21.333s21.333,9.542,21.333,21.333S203.791,298.668,192,298.668z M341.333,298.668
				c-11.791,0-21.333-9.542-21.333-21.333s9.542-21.333,21.333-21.333c11.791,0,21.333,9.542,21.333,21.333
				S353.125,298.668,341.333,298.668z"/>
			<path d="M213.333,341.334c-11.782,0-21.333,9.551-21.333,21.333c0,11.782,9.551,21.333,21.333,21.333
				c21.469,0,45.591,4.417,64.139,11.534c8.505,3.263,15.19,6.867,19.252,10.198c1.899,1.557,1.942,1.626,1.942-0.398
				c0,11.782,9.551,21.333,21.333,21.333s21.333-9.551,21.333-21.333C341.333,366.486,275.778,341.334,213.333,341.334z"/>
		</g>
	</g>
</g>
<g>
</g>
<g>
</g>
<g>
</g>
<g>
</g>
<g>
</g>
<g>
</g>
<g>
</g>
<g>
</g>
<g>
</g>
<g>
</g>
<g>
</g>
<g>
</g>
<g>
</g>
<g>
</g>
<g>
</g>
</svg>
