<?xml version="1.0" encoding="iso-8859-1"?>
<!-- Generator: Adobe Illustrator 19.0.0, SVG Export Plug-In . SVG Version: 6.00 Build 0)  -->
<svg version="1.1" id="Layer_1" xmlns="http://www.w3.org/2000/svg" xmlns:xlink="http://www.w3.org/1999/xlink" x="0px" y="0px"
	 viewBox="0 0 512.002 512.002" style="enable-background:new 0 0 512.002 512.002;" xml:space="preserve">
<g>
	<g>
		<g>
			<path d="M509.984,238.166c-4.096-17.323-13.867-31.829-26.773-39.808c-9.472-5.824-20.203-7.68-30.357-5.333
				c-0.893,0.217-2.297,0.646-3.985,1.199c-18.594-44.893-47.654-77.878-84.582-99.977c-3.132-1.874-6.294-3.643-9.479-5.328
				l6.225-16.75c4.105-11.044-1.521-23.324-12.565-27.429c-11.044-4.105-23.324,1.521-27.429,12.565l-5.786,15.568
				c-7.173-2.11-14.393-3.847-21.627-5.222c-5.805-1.104-11.257-1.921-16.291-2.501V42.668c0-11.782-9.551-21.333-21.333-21.333
				s-21.333,9.551-21.333,21.333v23.202c-11.592,1.744-24.289,4.779-37.604,9.455l-5.713-17.291
				c-3.696-11.187-15.762-17.26-26.949-13.563c-11.187,3.696-17.26,15.762-13.563,26.949l7.226,21.87
				c-3.667,2.116-7.344,4.363-11.023,6.755c-7.646,4.972-14.945,10.398-21.889,16.27l-24.739-24.739
				c-8.331-8.331-21.839-8.331-30.17,0s-8.331,21.839,0,30.17l25.262,25.262c-20.352,25.81-35.724,57.463-45.085,95.342
				c-5.289-0.828-6.856-0.829-7.752-0.829C17.536,241.522,0,265.031,0,298.674c0,33.621,17.536,57.131,42.667,57.131
				c1.617,0,4.128-0.249,7.112-0.645c6.084,22.505,16.034,43.765,29.761,62.697c35.463,48.866,90.324,72.811,176.461,72.811
				c82.41,0,138.218-29.267,176.455-81.955c21.878-30.174,34.185-66.248,36.484-103.867c1.169,0.035,2.195,0.052,3.093,0.052
				c4.267,0,5.739-0.363,7.275-0.725C503.904,298.305,517.365,269.313,509.984,238.166z M397.918,383.66
				c-30.309,41.764-73.36,64.341-141.918,64.341c-73.295,0-115.111-18.252-141.924-55.197
				c-13.379-18.452-22.196-39.927-26.224-62.755c-0.029-0.888-0.093-1.782-0.236-2.682c-2.987-18.773-2.837-37.824,0.427-56.555
				c0.078-0.45,0.117-0.896,0.166-1.344c0.026-0.145,0.048-0.289,0.075-0.434c6.975-37.699,20.016-68.091,38.059-92.175
				c7.158,4.225,16.233,3.915,23.103-0.938c-0.152,1.48-0.154,2.997,0.016,4.536c0.744,6.73,4.541,12.381,9.86,15.725
				c-2.776,3.379-5.254,7.04-7.386,10.952c-5.64,10.345-1.826,23.302,8.519,28.942c10.345,5.64,23.302,1.826,28.942-8.519
				c4.751-8.715,13.832-14.222,23.936-14.222c19.006,0,28.524-22.979,15.085-36.418c-15.391-15.391-37.888-22.461-60.095-20.007
				c-3.71,0.41-7.09,1.75-9.939,3.76c0.482-4.742-0.622-9.611-3.31-13.756c4.869-3.968,9.944-7.668,15.223-11.1
				c0.499-0.325,1.004-0.635,1.505-0.954c3.761,11.079,15.759,17.074,26.889,13.396c11.187-3.696,17.26-15.762,13.563-26.949
				l-1.681-5.086c6.563-2.262,13.174-4.145,19.786-5.665c1.559-0.358,3.067-0.686,4.525-0.987
				c1.419,10.406,10.318,18.431,21.113,18.431c11.366,0,20.629-8.896,21.271-20.101c7.332,0.971,15.12,2.542,23.17,4.824
				l-0.438,1.179c-4.105,11.044,1.521,23.324,12.565,27.429c10.852,4.033,22.892-1.332,27.202-11.998
				c0.869,0.5,1.738,1.006,2.607,1.526c32.852,19.659,57.904,50.203,72.549,94.409c0.165,0.91,0.368,1.819,0.658,2.723
				c3.563,11.093,6.208,21.525,8.128,31.915c1.259,6.805,2.069,14.187,2.539,23.211c0.043,0.887,0.158,1.752,0.306,2.607
				C427.829,321.417,418.014,355.943,397.918,383.66z"/>
			<path d="M356.012,193.248c4.061-3.856,6.608-9.296,6.646-15.338c0.074-11.782-9.417-21.393-21.199-21.467
				c-19.575-0.123-38.528,7.007-51.998,20.477c-13.439,13.439-3.921,36.418,15.085,36.418c8.084,0,15.507,3.474,20.645,9.45
				c7.681,8.934,21.151,9.949,30.085,2.268c8.934-7.681,9.949-21.151,2.268-30.084C357.042,194.388,356.531,193.813,356.012,193.248
				z"/>
			<path d="M362.667,341.334c0-60.256-47.258-106.667-106.667-106.667s-106.667,46.41-106.667,106.667S196.591,448.001,256,448.001
				S362.667,401.591,362.667,341.334z M256,277.334c36.016,0,64,27.482,64,64c0,6.838-0.982,13.359-2.813,19.442
				c-13.888-13.01-35.463-19.44-61.191-19.44c-25.718,0-47.293,6.429-61.183,19.437c-1.831-6.082-2.812-12.602-2.812-19.439
				C192,304.817,219.984,277.334,256,277.334z M221.938,395.978c3.42-7.831,14.066-11.975,34.058-11.975
				c20.007,0,30.647,4.143,34.061,11.978c-9.794,5.963-21.428,9.353-34.057,9.353C243.369,405.334,231.733,401.943,221.938,395.978z
				"/>
		</g>
	</g>
</g>
<g>
</g>
<g>
</g>
<g>
</g>
<g>
</g>
<g>
</g>
<g>
</g>
<g>
</g>
<g>
</g>
<g>
</g>
<g>
</g>
<g>
</g>
<g>
</g>
<g>
</g>
<g>
</g>
<g>
</g>
</svg>
