<svg xmlns="http://www.w3.org/2000/svg" width="1001.888" height="452.169" viewBox="0 0 1001.888 452.169">
  <path id="path" d="M4073.5,3487.075l39.825-26,18.675-31,8.5-39.325,13.825-39L4174,3323.075l26.075-27.25,33-14.325,58.5,4.825,56.5-3.575,28.525-14.5,25.65-25.675,13.325-32.25,11-29.5,11.175-39,8-35.325,25.825-38.175,48-25,30-7.5h36.5l31.675,7.5,31.5,17.5,21,25.175,11.825,26,6.675,32.25,5.325,74.5-3.325,38.5-2,40.825,2,26,7.25,25.175,12.5,26.325,19.825,23.5,23.425,18.675,24.325,13,29.5,7H4873.5l37.825-23.25L4928,3381.825l10.5-33.575,11.5-35.675,4.5-36.5,4.575-35.075,16.175-30.5,32-29.675L5035.075,3168l40-3.175" transform="translate(-4073.227 -3035.325)" fill="none" stroke="#b9b9b9" stroke-width="1" stroke-dasharray="5"/>
</svg>
