<?xml version="1.0" encoding="iso-8859-1"?>
<!-- Generator: Adobe Illustrator 19.0.0, SVG Export Plug-In . SVG Version: 6.00 Build 0)  -->
<svg version="1.1" id="Layer_1" xmlns="http://www.w3.org/2000/svg" xmlns:xlink="http://www.w3.org/1999/xlink" x="0px" y="0px"
	 viewBox="0 0 512.002 512.002" style="enable-background:new 0 0 512.002 512.002;" xml:space="preserve">
<g>
	<g>
		<g>
			<path d="M509.984,238.166c-4.096-17.323-13.867-31.829-26.773-39.808c-9.472-5.824-20.203-7.68-30.357-5.333
				c-0.893,0.217-2.297,0.646-3.985,1.199c-18.594-44.893-47.654-77.878-84.582-99.977c-3.132-1.874-6.294-3.643-9.479-5.328
				l6.225-16.75c4.105-11.044-1.521-23.324-12.565-27.429c-11.044-4.105-23.324,1.521-27.429,12.565l-5.786,15.568
				c-7.173-2.11-14.393-3.847-21.627-5.222c-5.805-1.104-11.257-1.921-16.291-2.501V42.668c0-11.782-9.551-21.333-21.333-21.333
				s-21.333,9.551-21.333,21.333v23.202c-11.592,1.744-24.289,4.779-37.604,9.455l-5.713-17.291
				c-3.696-11.187-15.762-17.26-26.949-13.563c-11.187,3.696-17.26,15.762-13.563,26.949l7.226,21.87
				c-3.667,2.116-7.344,4.363-11.023,6.755c-7.646,4.972-14.945,10.398-21.889,16.27l-24.739-24.739
				c-8.331-8.331-21.839-8.331-30.17,0s-8.331,21.839,0,30.17l25.262,25.262c-20.352,25.81-35.724,57.463-45.085,95.342
				c-5.289-0.828-6.856-0.829-7.752-0.829C17.536,241.522,0,265.031,0,298.674c0,33.621,17.536,57.131,42.667,57.131
				c1.617,0,4.128-0.249,7.112-0.645c6.084,22.505,16.034,43.765,29.761,62.697c35.463,48.866,90.324,72.811,176.461,72.811
				c82.41,0,138.218-29.267,176.455-81.955c21.878-30.174,34.185-66.248,36.484-103.867c1.169,0.035,2.195,0.052,3.093,0.052
				c4.267,0,5.739-0.363,7.275-0.725C503.904,298.305,517.365,269.313,509.984,238.166z M397.918,383.66
				c-30.309,41.764-73.36,64.341-141.918,64.341c-73.295,0-115.111-18.252-141.924-55.197
				c-13.379-18.452-22.196-39.927-26.224-62.755c-0.029-0.888-0.093-1.782-0.236-2.682c-2.987-18.773-2.837-37.824,0.427-56.555
				c0.078-0.45,0.117-0.896,0.166-1.344c0.026-0.145,0.048-0.289,0.075-0.434c6.975-37.699,20.016-68.091,38.059-92.175
				c8.18,4.829,18.881,3.754,25.909-3.274c7.246-7.246,8.182-18.405,2.823-26.672c4.869-3.968,9.944-7.668,15.223-11.1
				c0.499-0.325,1.004-0.635,1.505-0.954c3.761,11.079,15.759,17.074,26.889,13.396c11.187-3.696,17.26-15.762,13.563-26.949
				l-1.681-5.086c6.563-2.262,13.174-4.145,19.786-5.665c1.559-0.358,3.067-0.686,4.525-0.987
				c1.419,10.406,10.318,18.431,21.113,18.431c11.366,0,20.629-8.896,21.271-20.101c7.332,0.971,15.12,2.542,23.17,4.824
				l-0.438,1.179c-4.105,11.044,1.521,23.324,12.565,27.429c10.852,4.033,22.892-1.332,27.202-11.998
				c0.869,0.5,1.738,1.006,2.607,1.526c32.852,19.659,57.904,50.203,72.549,94.409c0.165,0.91,0.368,1.819,0.658,2.723
				c3.563,11.093,6.208,21.525,8.128,31.915c1.259,6.805,2.069,14.187,2.539,23.211c0.043,0.887,0.158,1.752,0.306,2.607
				C427.829,321.417,418.014,355.943,397.918,383.66z"/>
			<path d="M368.497,345.432c-62.721-17.776-130.396-0.59-177.069,44.576c-8.467,8.193-8.688,21.699-0.495,30.166
				c8.193,8.467,21.699,8.688,30.166,0.495c35.767-34.613,87.714-47.805,135.763-34.187c11.336,3.213,23.129-3.372,26.342-14.708
				C386.417,360.439,379.832,348.645,368.497,345.432z"/>
			<path d="M404.897,226.105c0-0.001,0-0.002,0-0.002c0-0.002-0.001-0.005-0.001-0.007c-4.729-46.879-46.597-81.061-93.477-76.311
				c-28.428,2.863-52.184,19.384-65.423,42.402c-22.045-17.668-52.5-23.769-81.01-13.44
				c-43.497,15.739-65.998,63.788-50.256,107.295c0.251,0.693,0.533,1.365,0.801,2.047c0.057,0.16,0.109,0.32,0.17,0.479
				c0.108,0.282,0.225,0.558,0.343,0.832c16.973,41.309,63.613,62.255,106.001,46.927c18.966-6.875,33.935-19.884,43.489-35.973
				c16.974,14.07,39.359,21.602,63.037,19.219c46.888-4.751,81.048-46.59,76.326-93.465
				C404.897,226.107,404.897,226.106,404.897,226.105z M315.708,192.235c15.707-1.592,30.279,5.565,38.902,17.505l-73.507,7.426
				C287.16,203.738,300.002,193.817,315.708,192.235z M179.51,218.865c14.211-5.148,29.398-1.978,40.254,7l-66.93,25.636
				C154.99,237.038,164.805,224.186,179.51,218.865z M207.52,296.209c-13.299,4.809-27.455,2.339-38.114-5.367l64.305-24.631
				C230.809,279.576,221.323,291.206,207.52,296.209z M324.283,277.123c-15.709,1.581-30.273-5.571-38.891-17.506l73.495-7.425
				C352.825,265.611,339.986,275.532,324.283,277.123z"/>
		</g>
	</g>
</g>
<g>
</g>
<g>
</g>
<g>
</g>
<g>
</g>
<g>
</g>
<g>
</g>
<g>
</g>
<g>
</g>
<g>
</g>
<g>
</g>
<g>
</g>
<g>
</g>
<g>
</g>
<g>
</g>
<g>
</g>
</svg>
