<?xml version="1.0" encoding="iso-8859-1"?>
<!-- Generator: Adobe Illustrator 17.1.0, SVG Export Plug-In . SVG Version: 6.00 Build 0)  -->
<!DOCTYPE svg PUBLIC "-//W3C//DTD SVG 1.1//EN" "http://www.w3.org/Graphics/SVG/1.1/DTD/svg11.dtd">
<svg version="1.1" id="Capa_1" xmlns="http://www.w3.org/2000/svg" xmlns:xlink="http://www.w3.org/1999/xlink" x="0px" y="0px"
	 viewBox="0 0 301.48 301.48" style="enable-background:new 0 0 301.48 301.48;" xml:space="preserve">
<g>
	<path d="M287.999,68.644C271.532,42,243.002,26.093,211.68,26.093h-2.688c-4.143,0-7.5,3.358-7.5,7.5s3.357,7.5,7.5,7.5h2.688
		c26.085,0,49.846,13.248,63.56,35.437c13.714,22.189,14.937,49.366,3.271,72.697l-58.34,116.679
		c-1.903,3.806-5.579,6.078-9.834,6.078s-7.931-2.272-9.834-6.078l-58.34-116.679c-1.852-3.705-6.355-5.206-10.063-3.354
		c-3.704,1.852-5.206,6.357-3.354,10.062l58.34,116.679c4.432,8.863,13.34,14.37,23.25,14.37s18.818-5.506,23.25-14.37
		l58.34-116.679C305.934,127.92,304.466,95.287,287.999,68.644z"/>
	<path d="M210.336,142.787c-3.774,0-7.423-0.76-10.844-2.26c-3.791-1.663-8.217,0.064-9.88,3.858s0.064,8.217,3.858,9.88
		c5.331,2.337,11.006,3.521,16.865,3.521c23.181,0,42.04-18.859,42.04-42.04c0-23.181-18.859-42.04-42.04-42.04
		c-4.143,0-7.5,3.358-7.5,7.5s3.357,7.5,7.5,7.5c14.91,0,27.04,12.13,27.04,27.04C237.376,130.657,225.246,142.787,210.336,142.787z
		"/>
	<path d="M210.22,121.42c2.327-6.106,0.679-12.861-4.198-17.21l-19.968-17.804V43.953c0-16.242-13.214-29.457-29.456-29.457H29.457
		C13.214,14.497,0,27.711,0,43.953v58.061c0,16.243,13.214,29.457,29.457,29.457h166.176
		C202.167,131.471,207.893,127.526,210.22,121.42z M15,102.014V43.953c0-7.971,6.485-14.457,14.457-14.457h127.141
		c7.971,0,14.456,6.485,14.456,14.457v45.813c0,2.138,0.913,4.175,2.509,5.598l22.477,20.041c0.154,0.138,0.313,0.28,0.164,0.673
		c-0.15,0.393-0.363,0.393-0.57,0.393H29.457C21.485,116.471,15,109.986,15,102.014z"/>
	<path d="M143.195,48.488H42.036c-4.143,0-7.5,3.358-7.5,7.5s3.357,7.5,7.5,7.5h101.159c4.143,0,7.5-3.358,7.5-7.5
		S147.338,48.488,143.195,48.488z"/>
	<path d="M98.783,82.48H42.036c-4.143,0-7.5,3.358-7.5,7.5s3.357,7.5,7.5,7.5h56.747c4.143,0,7.5-3.358,7.5-7.5
		S102.926,82.48,98.783,82.48z"/>
</g>
<g>
</g>
<g>
</g>
<g>
</g>
<g>
</g>
<g>
</g>
<g>
</g>
<g>
</g>
<g>
</g>
<g>
</g>
<g>
</g>
<g>
</g>
<g>
</g>
<g>
</g>
<g>
</g>
<g>
</g>
</svg>
